<svg xmlns="http://www.w3.org/2000/svg" version="1.1" width="313" height="313">
    <path d="M0 0 C5.65047346 4.69860158 9.70568547 10.46662244 10.43359375 17.90234375 C10.77669142 27.97693895 9.39596852 35.83360676 2.40234375 43.68359375 C-3.09373595 48.36284632 -10.01221935 49.9715355 -16.875 51.75 C-16.215 52.41 -15.555 53.07 -14.875 53.75 C-14.42125 54.20890625 -13.9675 54.6678125 -13.5 55.140625 C-12.33265106 56.29674943 -11.14214434 57.42966452 -9.9375 58.546875 C-2.61479492 65.48125481 2.06599412 72.59015304 2.4375 82.875 C2.2573813 93.71814574 -3.32757932 101.88857438 -10.53125 109.5 C-18.40656786 116.92954515 -28.28599897 119.01684768 -38.875 118.75 C-53.42900048 117.30301267 -66.98853296 110.35186393 -77.875 100.75 C-78.93460938 99.85087891 -78.93460938 99.85087891 -80.015625 98.93359375 C-83.80144314 95.68760523 -87.36573387 92.29556888 -90.875 88.75 C-90.67865967 89.41829834 -90.48231934 90.08659668 -90.2800293 90.77514648 C-82.41306703 117.72348004 -78.76858704 143.69837559 -77.875 171.75 C-77.85163574 172.45560059 -77.82827148 173.16120117 -77.80419922 173.88818359 C-76.29672334 227.35923976 -76.29672334 227.35923976 -85.875 240.75 C-89.09330065 242.89553377 -90.14286507 243.04583868 -93.875 243.0625 C-94.74125 243.07925781 -95.6075 243.09601563 -96.5 243.11328125 C-98.875 242.75 -98.875 242.75 -100.625 241.60546875 C-103.08624787 237.95205394 -103.03538575 234.64253627 -102.2734375 230.40234375 C-101.93570313 229.17644531 -101.59796875 227.95054687 -101.25 226.6875 C-100.87489773 225.28032152 -100.50127954 223.87274685 -100.12890625 222.46484375 C-99.92668457 221.71187012 -99.72446289 220.95889648 -99.51611328 220.18310547 C-98.3404997 215.72150419 -97.26463184 211.23620266 -96.1875 206.75 C-95.97335449 205.87851318 -95.75920898 205.00702637 -95.53857422 204.10913086 C-95.2352417 202.84854858 -95.2352417 202.84854858 -94.92578125 201.5625 C-94.74700439 200.82644531 -94.56822754 200.09039062 -94.3840332 199.33203125 C-93.07156331 192.67462999 -92.70799918 186.17053427 -92.671875 179.40625 C-92.66486069 178.52776398 -92.65784637 177.64927795 -92.65061951 176.74417114 C-92.63316034 173.91272836 -92.62676412 171.08149469 -92.625 168.25 C-92.62432526 167.28358582 -92.62365051 166.31717163 -92.62295532 165.32147217 C-92.63931609 150.58546423 -93.09579418 136.26426061 -95.875 121.75 C-96.02001953 120.94852539 -96.16503906 120.14705078 -96.31445312 119.32128906 C-99.6018871 101.78119219 -105.96237516 84.90181345 -111.73925781 68.06201172 C-113.01584742 64.33926566 -114.06158145 61.24248435 -114.1875 57.3125 C-114.24357422 56.16974609 -114.24357422 56.16974609 -114.30078125 55.00390625 C-113.69915267 51.81913846 -112.37734205 50.76456422 -109.875 48.75 C-107.12597656 48.29589844 -107.12597656 48.29589844 -104.015625 48.359375 C-102.90058594 48.37226562 -101.78554687 48.38515625 -100.63671875 48.3984375 C-98.89841797 48.44871094 -98.89841797 48.44871094 -97.125 48.5 C-95.36349609 48.52707031 -95.36349609 48.52707031 -93.56640625 48.5546875 C-90.6684466 48.6018088 -87.77213582 48.66758695 -84.875 48.75 C-85.60090332 48.58918945 -86.32680664 48.42837891 -87.07470703 48.26269531 C-90.38618856 47.52140566 -93.69297386 46.76090867 -97 46 C-98.14210937 45.74734375 -99.28421875 45.4946875 -100.4609375 45.234375 C-111.42798354 42.68389918 -111.42798354 42.68389918 -115.875 38.75 C-116.66887701 35.09816577 -116.10444425 33.25259218 -114.5625 29.875 C-99.9619467 10.33976492 -62.43696759 -2.57784917 -39.40405273 -6.88598633 C-25.39376874 -8.9025259 -11.77113011 -8.37782387 0 0 Z " fill="oklch(0.592 0.249 0.584)" transform="translate(269.875,63.25)">
    </path>

    <path d="M0 0 C1.06045532 -0.02707031 1.06045532 -0.02707031 2.14233398 -0.0546875 C6.98001494 -0.04544757 11.44653014 0.75903014 15 4.3125 C15.11015822 10.04072756 13.55648545 13.36088851 10.46484375 18.16015625 C6.24280587 24.83031641 2.36337241 31.65740721 -1.43945312 38.57348633 C-2.5218581 40.53970586 -3.61227479 42.50134626 -4.703125 44.46289062 C-5.39631093 45.71848645 -6.08903779 46.97433585 -6.78125 48.23046875 C-7.40064453 49.35219482 -8.02003906 50.4739209 -8.65820312 51.62963867 C-10.14910375 54.11067713 -10.14910375 54.11067713 -10 56.3125 C-9.24976562 55.30832031 -8.49953125 54.30414063 -7.7265625 53.26953125 C-4.49210634 48.94469547 -1.24848704 44.62680484 2 40.3125 C2.46889648 39.68923828 2.93779297 39.06597656 3.42089844 38.42382812 C6.23927477 34.68682359 9.10046777 30.98720329 12 27.3125 C12.71027344 26.39855469 13.42054688 25.48460937 14.15234375 24.54296875 C17.24072094 20.77882381 19.08589557 18.63243655 23.75 17 C27 17.3125 27 17.3125 29.1875 18.625 C42.22276048 37.95314484 43.28043645 71.65393446 39.75390625 93.82421875 C36.79607573 107.509932 30.43012544 119.0522299 19 127.3125 C10.45210708 132.60831498 -0.34004957 132.79346266 -9.96875 130.65234375 C-18.51290199 127.60651179 -24.17384791 122.41360034 -28.375 114.4375 C-32.46418238 105.50557317 -33.37372225 97.05276705 -34 87.3125 C-34.59683594 87.60125 -35.19367188 87.89 -35.80859375 88.1875 C-45.26929845 92.23606308 -55.55146075 93.23257067 -65.4765625 90.27734375 C-74.43362604 86.20698197 -80.75102674 80.06260506 -84.5 70.9375 C-88.13798344 59.34445942 -85.65502169 49.14388032 -80.1875 38.625 C-68.06559074 17.52280099 -45.39738066 8.50024411 -23 2.3125 C-15.43214524 0.43370149 -7.76301025 0.14623673 0 0 Z " fill="oklch(0.592 0.249 0.584)" transform="translate(120,106.6875)"></path>

    <path d="M0 0 C2.88233311 2.14410843 5.45850501 4.46373443 8 7 C8.87785156 7.86044922 8.87785156 7.86044922 9.7734375 8.73828125 C22.38831548 22.06667043 29.21937621 40.87001247 30 59 C29.59591141 67.81923338 27.30995295 76.26254737 23 84 C20 86 20 86 16.8125 86.125 C12.22591574 84.77158169 10.72833237 82.94388246 7.55078125 79.51953125 C-1.22456754 70.85169056 -11.69776521 63.88051048 -23 59 C-21.33424841 60.52183555 -19.66734329 62.0424085 -18 63.5625 C-17.49960205 64.01995605 -16.9992041 64.47741211 -16.48364258 64.94873047 C-13.60268978 67.57397739 -10.67610149 70.12385972 -7.6875 72.625 C-2.99166339 76.73990837 1.48881763 80.98970382 2.5625 87.3125 C1.94199583 90.27713103 1.45311079 91.27373685 -1 93 C-12.62176542 96.87392181 -26.92500876 95.18519321 -39 95 C-39.94246582 94.98743164 -40.88493164 94.97486328 -41.85595703 94.96191406 C-59.5564653 94.65646419 -76.97263595 92.75514467 -90.5 80.0625 C-96.68143808 73.31105226 -97.68847966 67.69526743 -97.4765625 58.640625 C-96.28164419 49.5122327 -91.24354641 41.58574507 -84 36 C-76.03919331 30.15060569 -66.58359514 28.35269838 -56.8125 29.3125 C-53 30 -53 30 -51 31 C-51.04640625 30.39414062 -51.0928125 29.78828125 -51.140625 29.1640625 C-51.51476745 20.47861283 -49.35867038 13.64159076 -44 6.75 C-33.51330969 -4.46461675 -13.16408819 -8.80202346 0 0 Z " fill="oklch(0.592 0.249 0.584)" transform="translate(130,11)"></path>
</svg>